<svg xmlns="http://www.w3.org/2000/svg" viewBox="0 0 100 100">
	<path fill="#000" fill-rule="evenodd" d="M37.72 75.28c-1.5.87-2.36.4-2.64-.93L24.36 24.73c-.28-1.33.53-2.31 1.77-2.31h10.08c1.24 0 2.45.7 2.73 2.03l8.45 43.52c.28 1.33-.27 2.44-1.77 3.31L37.72 75.28z"/>
	<path fill="#000" d="M61.58 22.42h11.14c1.11 0 1.65.54 1.65 1.65v48.79c0 1.11-.82 2.31-2.2 3.03l-8.25 4.39c-1.38.72-2.48.27-2.48-1.38V24.07c0-1.11.54-1.65 1.65-1.65z"/>
	<path fill="#000" d="M84.52 28.94c.55-.3.83-.11.83.58v3.59c0 .69-.41 1.52-1.24 2.07l-5.24 3.45c-.83.55-1.52.28-1.52-.72v-3.59c0-.69.41-1.52 1.24-2.07l5.93-3.31z"/>
</svg>
